<?xml version="1.0" encoding="utf-8" ?>
<svg xmlns="http://www.w3.org/2000/svg" xmlns:xlink="http://www.w3.org/1999/xlink" width="790" height="790">
	<path fill="#030303" d="M159.166 108.947C185.97 108.581 212.821 109.198 239.63 109.209L426.71 109.22L581.766 109.216C608.986 109.212 636.188 108.69 663.405 109.295C657.65 116.503 650.694 122.564 644.95 129.691C644.616 137.187 644.827 144.73 644.834 152.233L644.846 189.641L644.882 306.002L644.86 433.295C644.835 458.519 644.228 483.834 645.173 509.043C633.124 522.357 619.871 534.636 607.169 547.324L540.386 614.223L510.474 644.305C504.417 650.464 498.213 658.09 491.101 662.965C477.088 663.697 462.827 663.041 448.791 663.02L369.405 663.023L197.355 662.811L143.974 662.699C163.885 641.634 184.761 621.425 205.369 601.045Q175.731 570.359 145.212 540.549C144.888 535.675 145.212 530.576 145.228 525.683L145.249 495.923L145.272 401.656L145.226 109.172C149.882 109.187 154.515 109.178 159.166 108.947ZM193.989 153.876L193.832 491.152C191.437 494.664 188.027 497.75 185.083 500.807C179.372 506.736 173.531 512.581 168.211 518.868C193.816 519.733 219.666 519.039 245.298 519.043L391.234 519.045L498.665 519.049L533.028 519.067C540.484 519.072 547.961 519.259 555.407 518.799Q559.814 514.555 564.073 510.162C576.734 497.259 589.073 483.882 602.048 471.308C602.361 455.94 602.049 440.573 602.039 425.205L602.029 337.487L602.135 153.857C581.997 153.374 561.784 153.708 541.636 153.696L429.377 153.682L303.694 153.669C268.743 153.597 233.772 153.325 198.823 153.69L193.989 153.876Z"/>
	<path fill="#030303" d="M645.211 566.556L645.87 567.183C646.749 571.141 646.133 576.106 646.122 580.21L646.107 604.138L646.143 702.754Q626.482 702.604 606.821 702.783C575.553 702.82 544.202 702.976 512.941 702.56C512.19 702.485 512.024 702.641 511.505 702.05C512.145 700.207 513.939 698.643 515.262 697.255C537.791 673.633 561.428 650.936 584.419 627.746L623.215 588.565C630.504 581.205 637.664 573.647 645.211 566.556Z"/>
</svg>
