<?xml version="1.0" encoding="utf-8" ?>
<svg xmlns="http://www.w3.org/2000/svg" xmlns:xlink="http://www.w3.org/1999/xlink" width="1024" height="1024">
	<path fill="#020202" d="M141.12 144.219C149.4 142.575 165.655 144.053 175.136 144.053L265.213 144.047L445.603 144.067L503.218 144.056C512.804 144.049 522.488 143.398 532.043 144.124L527.893 148.367C522.869 154.213 516.915 159.288 512.071 165.249C510.849 177.926 511.687 191.297 511.724 204.045L511.892 274.99L512.453 376.309C512.503 395.157 511.211 414.137 512.108 432.988C502.126 444.127 491.107 454.406 480.688 465.142Q437.093 509.783 392.896 553.83C372.12 554.23 351.3 553.918 330.519 553.916L213.458 553.911L163.361 553.93C156.965 553.939 149.183 554.951 143.012 553.756C145.745 549.2 151.235 544.895 155.033 540.986C165.229 530.488 175.327 519.203 186.264 509.509C171.198 494.497 155.511 479.659 141.171 463.966C140.166 454.01 141.031 440.977 141.037 430.691L141.076 361.61L141.12 144.219ZM178.098 413.175C172.487 418.98 167.564 425.349 162.151 431.322L162.032 437.088L342.579 437.045L410.025 437.053C423.259 437.06 436.591 436.75 449.81 437.311C451.781 435.427 453.808 433.578 455.685 431.6L475.357 411.966C476.542 401.16 476.049 390.107 476.049 379.246L476.046 327.262L476.035 229.806C476.034 213.186 476.295 196.526 476.007 179.912L273.018 179.902L209.083 179.918C199.013 179.913 188.295 180.654 178.293 179.777C177.433 186.312 178.085 193.675 178.111 200.297L178.181 239.963L178.138 354.859C178.137 374.19 178.905 393.885 178.098 413.175Z"/>
	<path fill="#020202" d="M845.45 599.98L870.525 599.941C871.612 600.009 873.148 599.8 873.943 600.543C874.709 632.725 873.888 665.054 873.958 697.248L874.05 727.072C874.063 731.354 874.687 736.608 873.852 740.758C873.034 740.971 872.252 741.17 871.415 741.3C865.372 740.04 853.575 741.024 846.944 741.069Q846.839 736.323 846.905 731.576C839.577 737.492 832.297 741.317 822.871 742.565C810.135 744.251 797.023 741.578 786.731 733.686C774.413 724.242 767.952 711.027 765.976 695.826C764.181 682.017 768.797 665.822 777.369 654.904Q778.077 653.997 778.829 653.125Q779.581 652.254 780.375 651.421Q781.169 650.588 782.003 649.795Q782.837 649.003 783.709 648.252Q784.582 647.501 785.49 646.795Q786.398 646.088 787.34 645.427Q788.283 644.766 789.256 644.153Q790.23 643.539 791.233 642.975Q792.235 642.41 793.265 641.896Q794.294 641.381 795.348 640.918Q796.401 640.455 797.476 640.045Q798.552 639.635 799.646 639.278Q800.74 638.921 801.85 638.619Q802.961 638.317 804.085 638.069Q805.208 637.822 806.343 637.631Q807.478 637.44 808.621 637.305C822.702 635.677 834.934 640.191 845.831 648.944C844.677 632.825 845.456 616.16 845.45 599.98ZM824.863 719.974C831.952 718.447 837.522 715.158 841.478 708.905C846.51 700.951 847.695 690.647 845.523 681.581C843.774 674.285 839.588 667.602 833.026 663.724C828.024 660.769 822.154 659.894 816.443 660.665C809.138 662.586 803.599 665.642 799.564 672.344C794.868 680.144 793.78 691.022 796.111 699.77C797.953 706.682 802.177 713.394 808.531 716.928C813.718 719.813 819.05 720.363 824.863 719.974Z"/>
	<path fill="#020202" d="M173.665 637.175C186.034 636.681 197.024 638.862 206.875 646.763C218.125 655.787 223.867 668.878 225.275 683.02C226.839 698.733 223.661 715.182 213.412 727.572C205.583 737.036 193.341 742.704 181.201 743.747C168.37 744.849 157.189 740.517 147.534 732.309C148.133 739.868 146.955 747.7 146.995 755.325C146.958 762.65 147.353 769.971 147.318 777.313C137.898 777.669 128.429 777.578 119.001 777.623L118.904 686.407C118.888 670.881 119.371 655.177 118.674 639.673C128.065 639.883 137.593 640.083 146.972 639.551C147.117 642.733 147 645.965 146.992 649.153C155.619 642.635 162.775 638.518 173.665 637.175ZM174.099 719.387C177.657 720.285 181.709 718.827 184.75 716.943C191.07 713.029 194.904 705.831 196.368 698.702C198.217 689.699 197.295 679.213 192.21 671.371C188.732 666.006 183.407 662.256 177.109 661.032C175.072 660.636 173.108 660.649 171.045 660.747C164.421 661.067 158.932 663.414 154.363 668.373C148.384 674.863 146.242 684.463 146.784 693.079C147.268 700.776 150.386 709.001 156.219 714.23C159.849 717.485 165.537 720.215 170.521 719.817Q172.317 719.657 174.099 719.387Z"/>
	<path fill="#020202" d="M634.587 637.193C649.419 635.975 665.639 640.082 677.41 649.337C688.098 657.74 693.859 670.051 695.309 683.42C696.836 697.507 693.572 712.037 684.492 723.125C674.516 735.307 659.907 740.827 644.637 742.326C630.07 743.062 614.785 740.467 602.899 731.506C592.18 723.426 585.832 712.242 583.959 698.988C581.875 684.244 584.415 669.667 593.62 657.701C603.859 644.391 618.518 639.341 634.587 637.193ZM643.395 719.313C650.58 718.246 656.893 714.794 661.269 708.896C666.319 702.091 667.932 693.127 666.697 684.836C665.575 677.308 661.732 670.085 655.447 665.631C649.223 661.222 642.933 660.691 635.607 661.115C628.351 662.266 622.053 666.215 617.687 672.127C612.668 678.923 610.79 687.731 612.241 696.032C613.516 703.324 617.564 710.483 623.676 714.79C629.238 718.71 636.678 720.173 643.395 719.313Z"/>
	<path fill="#020202" d="M281.685 637.177Q282.989 637.001 284.301 636.89Q285.613 636.778 286.928 636.731Q288.243 636.684 289.56 636.703Q290.876 636.721 292.189 636.803Q293.503 636.886 294.811 637.034Q296.119 637.181 297.418 637.393Q298.717 637.605 300.004 637.88Q301.291 638.156 302.563 638.494Q303.835 638.833 305.089 639.234Q306.343 639.635 307.575 640.097Q308.808 640.559 310.016 641.081Q311.224 641.603 312.405 642.184Q313.586 642.766 314.737 643.404Q315.888 644.043 317.006 644.737Q318.124 645.432 319.207 646.181Q320.289 646.929 321.334 647.731Q322.378 648.532 323.382 649.383Q324.385 650.235 325.346 651.135Q326.306 652.035 327.221 652.982Q328.136 653.928 329.003 654.918Q329.87 655.908 330.688 656.94Q331.505 657.972 332.271 659.042Q333.036 660.113 333.748 661.22Q334.46 662.328 335.116 663.468Q335.773 664.609 336.372 665.781Q336.972 666.953 337.513 668.153Q338.054 669.353 338.535 670.578Q339.016 671.803 339.436 673.05Q339.857 674.298 340.215 675.564Q340.573 676.831 340.869 678.114Q341.164 679.396 341.396 680.692Q341.628 681.988 341.796 683.293Q341.964 684.599 342.067 685.911Q342.171 687.223 342.209 688.539Q342.248 689.854 342.221 691.17Q342.195 692.486 342.104 693.799Q342.013 695.113 341.857 696.42Q341.701 697.727 341.481 699.024Q341.262 700.322 340.978 701.608Q340.694 702.893 340.348 704.163Q340.001 705.432 339.593 706.684Q339.184 707.935 338.714 709.165Q338.244 710.394 337.715 711.599Q337.185 712.804 336.596 713.981Q336.008 715.159 335.362 716.306Q334.716 717.453 334.015 718.566Q333.313 719.68 332.558 720.758Q331.802 721.836 330.994 722.875Q330.187 723.914 329.329 724.913Q328.471 725.911 327.565 726.866Q326.659 727.82 325.706 728.729Q324.754 729.638 323.759 730.499Q322.763 731.36 321.726 732.171Q320.69 732.982 319.614 733.741Q318.538 734.5 317.427 735.205Q316.315 735.909 315.17 736.559Q314.025 737.208 312.85 737.8Q311.674 738.392 310.471 738.926Q309.267 739.459 308.039 739.933Q306.811 740.406 305.561 740.819Q304.311 741.231 303.042 741.581Q301.774 741.932 300.489 742.219Q299.205 742.507 297.908 742.731Q296.611 742.954 295.304 743.114Q294.008 743.272 292.705 743.367Q291.403 743.462 290.098 743.493Q288.792 743.524 287.487 743.491Q286.182 743.459 284.879 743.362Q283.577 743.266 282.281 743.106Q280.985 742.946 279.699 742.722Q278.412 742.499 277.138 742.214Q275.864 741.928 274.605 741.58Q273.346 741.232 272.106 740.823Q270.866 740.415 269.648 739.946Q268.429 739.477 267.235 738.949Q266.04 738.421 264.873 737.835Q263.706 737.25 262.569 736.607Q261.432 735.965 260.328 735.269Q259.223 734.572 258.154 733.822Q257.085 733.072 256.054 732.271Q255.023 731.469 254.033 730.619Q253.042 729.768 252.094 728.87Q251.146 727.972 250.243 727.028Q249.341 726.085 248.485 725.099Q247.629 724.112 246.823 723.085Q246.016 722.058 245.261 720.993Q244.506 719.928 243.804 718.827Q243.101 717.726 242.454 716.592Q241.806 715.458 241.214 714.294Q240.623 713.13 240.089 711.938Q239.555 710.747 239.08 709.531Q238.605 708.314 238.19 707.076Q237.775 705.838 237.421 704.581Q237.067 703.324 236.775 702.052Q236.483 700.779 236.253 699.494Q236.024 698.208 235.857 696.913Q235.69 695.618 235.587 694.316Q235.484 693.014 235.445 691.709Q235.406 690.404 235.43 689.098Q235.455 687.793 235.543 686.49Q235.632 685.187 235.784 683.89Q235.935 682.593 236.151 681.305Q236.366 680.017 236.644 678.741Q236.921 677.465 237.261 676.205Q237.601 674.944 238.002 673.701Q238.403 672.458 238.864 671.237Q239.326 670.015 239.846 668.818Q240.366 667.62 240.945 666.449Q241.523 665.278 242.158 664.137Q242.793 662.996 243.483 661.888Q244.173 660.779 244.916 659.705Q245.659 658.632 246.454 657.596Q247.249 656.56 248.093 655.564Q248.938 654.568 249.83 653.614Q250.722 652.661 251.66 651.752Q252.598 650.843 253.579 649.981Q254.56 649.12 255.582 648.307Q256.604 647.494 257.664 646.732Q258.724 645.97 259.821 645.261Q260.917 644.552 262.047 643.897Q263.177 643.242 264.337 642.643Q265.498 642.044 266.686 641.503Q267.874 640.962 269.088 640.479Q270.301 639.996 271.536 639.574Q272.772 639.151 274.027 638.789Q275.281 638.427 276.552 638.127Q277.823 637.827 279.107 637.589Q280.391 637.352 281.685 637.177ZM292.61 719.397C299.792 717.664 305.396 714.477 309.415 708.024C313.996 700.668 315.011 689.962 313.14 681.547C311.58 674.534 307.03 667.762 300.82 664.105C295.813 661.156 290.872 660.797 285.243 661.035C277.517 663.058 271.629 666.535 267.547 673.695C263.136 681.433 262.005 691.74 264.479 700.281C266.44 707.054 270.764 713.461 277.067 716.85C281.813 719.401 287.309 720.114 292.61 719.397Z"/>
	<path fill="#020202" d="M437.994 637.182C449.457 635.56 464.013 637.136 474.266 642.723C491.963 652.368 492.02 668.363 491.983 686.186C491.954 700.131 490.239 728.039 493.953 740.108L494.142 740.704C484.173 741.179 473.967 740.014 464.063 740.977L463.935 730.997C461.753 733.167 459.427 735.166 456.815 736.802C446.093 743.52 432.193 744.325 420.108 741.433C411.304 739.327 404.799 735.165 399.986 727.391C398.786 724.805 397.832 722.106 397.287 719.304C395.734 711.312 396.538 700.675 401.303 693.944C409.81 681.928 426.72 681.643 439.919 680.084Q452.563 678.719 465.133 676.789C464.774 673.659 464.606 670.23 463.464 667.27C462.134 663.82 459.604 661.668 456.229 660.276C450.456 657.895 442.202 657.977 436.504 660.631C430.989 663.2 428.887 667.438 426.873 672.81C419.708 672.035 408.443 671.94 401.266 672.59C402.293 665.198 402.824 658.753 407.339 652.494C414.465 642.615 426.473 638.85 437.994 637.182ZM427.111 719.914C433.051 723.27 441.577 723.206 448.051 721.308C454.107 719.534 459.203 715.531 462.105 709.891C463.538 707.106 465.959 697.564 464.628 694.576C464.568 694.442 464.471 694.327 464.392 694.203Q457.315 695.519 450.196 696.588C441.792 697.815 429.396 698.032 424.138 705.916C422.796 707.928 422.355 710.175 422.925 712.524C423.634 715.446 425.091 717.733 427.111 719.914Z"/>
	<path fill="#020202" d="M619.99 755.99L648.027 755.956C647.827 765.511 648.678 775.042 648.779 784.591C648.845 790.808 648.179 797.053 647.982 803.271Q649.112 802.04 650.291 800.856C657.606 793.535 667.312 790.1 677.582 790.166C687.756 790.231 697.964 793.082 705.189 800.547C709.66 805.166 712.345 810.876 713.749 817.108C716.058 827.36 715.079 838.443 715.096 848.902Q715.22 869.945 715.014 890.987L687.507 891.031L687.655 853.786C687.656 843.213 689.663 827.369 681.831 819.099C678.373 815.449 672.959 813.008 667.931 812.929C662.951 812.851 658.331 814.444 654.748 817.95C651.816 820.82 649.709 824.726 648.852 828.734C647.942 832.993 648.476 837.582 648.34 841.925Q647.738 866.524 647.993 891.129Q634.07 891.2 620.148 891.015C619.399 846.037 620.206 800.98 619.99 755.99Z"/>
	<path fill="#020202" d="M812.979 790.713C824.188 788.913 839.868 791.87 849.375 798.199C858.465 804.25 860.925 812.025 863.005 822.145Q850.777 822.271 838.552 822.008C837.515 819.985 836.499 817.69 834.934 816.021C830.897 811.718 824.829 810.152 819.108 809.96C814.44 809.804 808.913 810.603 805.447 814.032C804.013 815.451 803.136 817.306 803.185 819.346C803.273 822.971 806.857 826.959 810.145 828.148C813.529 829.372 817.661 829.67 821.217 830.151C833.376 831.793 848.479 832.641 857.832 841.642C863.08 846.693 865.336 853.253 865.379 860.411C865.425 868.04 863.04 876.163 857.508 881.595C847.672 891.252 833.454 894.005 820.169 893.977C809.321 892.68 798.857 890.937 789.493 884.927C779.144 878.285 775.959 870.533 773.365 859.008C777.491 859.015 798.367 858.154 800.099 859.882C802.575 862.353 803.312 866.694 806.238 869.077C810.6 872.631 818.565 873.75 824.092 873.388C828.855 873.077 834.418 872.706 837.637 868.713C839.303 866.647 839.736 863.619 839.38 861.036C839.056 858.686 836.618 857.003 834.653 856.086C826.787 852.415 811.943 851.867 802.686 849.46C796.987 847.978 791.427 845.887 786.742 842.238C781.262 837.97 777.698 832.267 776.977 825.279C776.155 817.321 778.719 808.851 783.927 802.755C791.134 794.319 802.387 791.571 812.979 790.713Z"/>
	<path fill="#020202" d="M511.322 475.467C512.803 477.302 511.985 569.227 511.978 579.003C478.166 578.316 444.214 578.973 410.386 578.963L409.431 578.698C410.503 576.16 503.736 481.868 511.322 475.467Z"/>
	<path fill="#020202" d="M554.005 763.499C563.371 763.638 572.644 763.847 582.015 763.535C582.032 773.35 582.291 783.178 582.043 792.991L604.479 793.02L604.281 814.498C596.92 814.243 589.477 814.507 582.108 814.547L582.023 842.258C582.001 847.296 581.666 852.538 582.145 857.546C582.532 861.588 583.893 865.868 587.213 868.449C592.138 872.28 599.252 871.104 604.966 870.266L604.985 888.625C604.988 889.034 604.797 889.601 604.706 890.006C600.429 892.177 588.775 892.362 583.715 892.322C575.794 892.261 567.28 890.799 561.588 884.793C558.475 881.51 556.255 877.126 555.253 872.719C553.675 865.782 554.434 857.681 554.448 850.58L554.587 814.42L536.007 814.467C536.209 807.385 536.316 800.103 535.789 793.036L554.377 792.989C554.436 785.814 555.589 769.51 554.005 763.499Z"/>
	<path fill="#020202" d="M355.994 599.779C364.461 598.813 372.674 600.097 381.13 599.904C381.117 646.625 382.91 693.393 382.01 740.121C380.993 741.121 379.816 740.737 378.432 740.728Q365.951 740.606 353.469 740.613C353.963 728.993 353.467 717.153 353.438 705.508L353.045 624.432C353.056 617.554 352.513 610.453 352.755 603.618C352.793 602.541 352.928 601.289 353.524 600.364C353.921 599.749 355.288 599.854 355.994 599.779Z"/>
	<path fill="#020202" d="M565.841 638.198C568.869 637.489 573.185 637.924 576.34 637.867C575.948 646.225 576.089 654.675 575.985 663.045C566.599 662.565 553.47 661.477 546.041 668.471C542.454 671.848 540.611 676.856 539.766 681.616C537.969 691.734 539.401 703.874 539.496 714.255C539.572 722.687 539.043 731.142 538.993 739.583C529.702 740.23 520.321 739.52 511.001 739.82L510.999 639.523C520.058 640.34 529.926 639.996 539.023 639.499L539.066 654.548Q540.181 652.976 541.348 651.441C547.882 642.874 555.443 639.583 565.841 638.198Z"/>
	<path fill="#020202" d="M719.425 639.645C729.081 640.129 738.884 639.849 748.552 639.687L748.456 739.347C739.119 738.784 729.358 739.004 720.017 739.411C719.939 706.197 720.405 672.846 719.425 639.645Z"/>
	<path fill="#020202" d="M731.925 793.057C741.454 792.92 750.995 792.997 760.526 792.973C760.079 800.73 760.323 808.606 760.334 816.379L760.402 862.392C760.411 871.953 760.665 881.597 760.088 891.143C750.797 890.701 741.426 890.954 732.124 890.972C731.597 858.345 732.608 825.676 731.925 793.057Z"/>
	<path fill="#020202" d="M730.071 597.981Q730.462 597.867 730.857 597.773Q731.253 597.678 731.653 597.604Q732.053 597.529 732.456 597.474Q732.859 597.418 733.264 597.383Q733.669 597.348 734.076 597.332Q734.482 597.317 734.889 597.322Q735.296 597.326 735.702 597.351Q736.108 597.375 736.512 597.42Q736.917 597.464 737.318 597.528Q737.72 597.593 738.118 597.677Q738.516 597.76 738.91 597.864Q739.303 597.967 739.691 598.09Q740.079 598.212 740.46 598.353Q740.842 598.495 741.216 598.655Q741.59 598.815 741.956 598.993Q742.321 599.171 742.678 599.367Q743.034 599.563 743.381 599.776Q743.727 599.989 744.063 600.219Q744.399 600.449 744.723 600.695Q745.047 600.941 745.358 601.202Q745.669 601.464 745.968 601.741Q746.266 602.017 746.55 602.308Q746.835 602.599 747.104 602.904Q747.374 603.208 747.628 603.526Q747.883 603.843 748.121 604.173Q748.36 604.502 748.582 604.843Q748.804 605.184 749.009 605.535Q749.214 605.887 749.402 606.248Q749.589 606.609 749.759 606.978Q749.929 607.348 750.08 607.726Q750.231 608.103 750.364 608.488Q750.496 608.872 750.61 609.263Q750.724 609.654 750.818 610.049Q750.912 610.445 750.987 610.845Q751.061 611.245 751.116 611.648Q751.171 612.051 751.206 612.456Q751.242 612.862 751.257 613.268Q751.272 613.675 751.267 614.082Q751.262 614.489 751.238 614.895Q751.213 615.301 751.168 615.705Q751.124 616.109 751.059 616.511Q750.995 616.913 750.911 617.311Q750.827 617.709 750.723 618.102Q750.62 618.496 750.497 618.883Q750.374 619.271 750.232 619.653Q750.091 620.034 749.931 620.408Q749.771 620.782 749.592 621.148Q749.414 621.513 749.218 621.87Q749.022 622.226 748.809 622.573Q748.595 622.919 748.365 623.255Q748.135 623.59 747.889 623.914Q747.643 624.238 747.381 624.549Q747.119 624.86 746.842 625.159Q746.565 625.457 746.274 625.741Q745.983 626.025 745.678 626.295Q745.374 626.564 745.056 626.818Q744.739 627.073 744.409 627.311Q744.079 627.55 743.738 627.771Q743.397 627.993 743.046 628.198Q742.694 628.403 742.333 628.59Q741.972 628.778 741.602 628.947Q741.233 629.117 740.855 629.268Q740.477 629.419 740.092 629.551Q739.708 629.684 739.317 629.797Q738.927 629.91 738.531 630.004Q738.135 630.098 737.736 630.173Q737.336 630.247 736.933 630.302Q736.531 630.357 736.125 630.392Q735.72 630.427 735.314 630.442Q734.908 630.457 734.501 630.452Q734.095 630.447 733.689 630.422Q733.283 630.397 732.879 630.352Q732.475 630.308 732.074 630.243Q731.673 630.179 731.275 630.094Q730.877 630.01 730.484 629.907Q730.091 629.803 729.703 629.681Q729.316 629.558 728.934 629.416Q728.553 629.275 728.18 629.115Q727.806 628.955 727.44 628.777Q727.075 628.598 726.719 628.402Q726.363 628.207 726.016 627.993Q725.67 627.78 725.335 627.55Q725 627.32 724.676 627.074Q724.352 626.828 724.041 626.567Q723.73 626.305 723.432 626.029Q723.134 625.752 722.85 625.461Q722.566 625.17 722.297 624.866Q722.027 624.562 721.773 624.244Q721.519 623.927 721.281 623.598Q721.042 623.268 720.82 622.927Q720.598 622.587 720.394 622.236Q720.189 621.885 720.001 621.524Q719.814 621.163 719.644 620.794Q719.475 620.424 719.324 620.047Q719.172 619.669 719.04 619.285Q718.907 618.9 718.794 618.51Q718.681 618.12 718.586 617.724Q718.492 617.329 718.418 616.929Q718.343 616.529 718.288 616.127Q718.233 615.724 718.198 615.319Q718.163 614.914 718.147 614.507Q718.132 614.101 718.137 613.695Q718.142 613.288 718.166 612.882Q718.191 612.477 718.235 612.072Q718.28 611.668 718.344 611.267Q718.409 610.865 718.492 610.468Q718.576 610.07 718.68 609.677Q718.783 609.283 718.906 608.896Q719.028 608.508 719.169 608.127Q719.311 607.746 719.471 607.372Q719.631 606.998 719.809 606.633Q719.987 606.267 720.182 605.911Q720.378 605.554 720.591 605.208Q720.804 604.862 721.034 604.526Q721.264 604.191 721.509 603.867Q721.755 603.544 722.017 603.232Q722.278 602.921 722.555 602.623Q722.831 602.325 723.122 602.04Q723.412 601.756 723.717 601.487Q724.021 601.217 724.338 600.963Q724.655 600.708 724.985 600.47Q725.314 600.231 725.654 600.009Q725.995 599.787 726.346 599.582Q726.697 599.377 727.058 599.19Q727.419 599.002 727.788 598.832Q728.157 598.663 728.535 598.511Q728.912 598.36 729.296 598.227Q729.681 598.095 730.071 597.981Z"/>
	<path fill="#020202" d="M743.329 753.968Q743.823 753.882 744.322 753.828Q744.82 753.774 745.321 753.753Q745.822 753.733 746.324 753.745Q746.825 753.757 747.324 753.802Q747.824 753.848 748.319 753.926Q748.815 754.004 749.304 754.114Q749.793 754.225 750.274 754.367Q750.754 754.51 751.225 754.683Q751.695 754.857 752.153 755.062Q752.611 755.266 753.055 755.5Q753.498 755.734 753.925 755.997Q754.352 756.26 754.761 756.55Q755.17 756.841 755.559 757.157Q755.948 757.474 756.315 757.816Q756.682 758.157 757.026 758.522Q757.37 758.887 757.689 759.274Q758.008 759.661 758.301 760.068Q758.594 760.475 758.86 760.9Q759.125 761.326 759.362 761.768Q759.599 762.21 759.806 762.667Q760.014 763.123 760.19 763.592Q760.367 764.062 760.513 764.542Q760.658 765.022 760.772 765.51Q760.885 765.999 760.967 766.494Q761.048 766.989 761.096 767.488Q761.145 767.987 761.16 768.488Q761.175 768.989 761.158 769.491Q761.14 769.992 761.09 770.491Q761.039 770.99 760.956 771.484Q760.872 771.979 760.757 772.467Q760.641 772.955 760.493 773.434Q760.346 773.913 760.167 774.382Q759.988 774.851 759.779 775.306Q759.57 775.762 759.331 776.203Q759.092 776.644 758.824 777.068Q758.557 777.493 758.262 777.898Q757.968 778.304 757.647 778.69Q757.326 779.075 756.98 779.439Q756.635 779.802 756.266 780.142Q755.898 780.482 755.507 780.797Q755.117 781.112 754.707 781.401Q754.297 781.689 753.868 781.95Q753.44 782.211 752.996 782.443Q752.551 782.675 752.092 782.878Q751.633 783.08 751.162 783.252Q750.691 783.424 750.209 783.564Q749.728 783.704 749.238 783.813Q748.749 783.921 748.253 783.997Q747.886 784.053 747.517 784.091Q747.148 784.129 746.778 784.15Q746.407 784.17 746.036 784.172Q745.665 784.174 745.295 784.158Q744.924 784.142 744.555 784.108Q744.185 784.074 743.818 784.022Q743.451 783.97 743.086 783.9Q742.722 783.83 742.362 783.743Q742.001 783.655 741.645 783.55Q741.289 783.445 740.939 783.323Q740.589 783.201 740.245 783.062Q739.901 782.922 739.564 782.767Q739.228 782.611 738.899 782.439Q738.57 782.267 738.25 782.079Q737.93 781.892 737.62 781.688Q737.309 781.485 737.009 781.267Q736.709 781.049 736.42 780.817Q736.131 780.584 735.853 780.338Q735.576 780.092 735.31 779.833Q735.045 779.573 734.793 779.301Q734.541 779.029 734.302 778.745Q734.063 778.461 733.839 778.166Q733.614 777.87 733.405 777.565Q733.195 777.259 733 776.943Q732.805 776.627 732.626 776.302Q732.447 775.977 732.284 775.644Q732.121 775.311 731.974 774.97Q731.828 774.629 731.698 774.282Q731.568 773.934 731.455 773.581Q731.342 773.227 731.247 772.869Q731.152 772.51 731.074 772.148Q730.996 771.785 730.936 771.419Q730.876 771.053 730.834 770.684Q730.792 770.316 730.768 769.945Q730.743 769.575 730.737 769.204Q730.731 768.833 730.744 768.463Q730.755 768.092 730.786 767.722Q730.816 767.352 730.864 766.984Q730.912 766.616 730.978 766.251Q731.044 765.886 731.127 765.525Q731.211 765.163 731.312 764.807Q731.413 764.449 731.532 764.098Q731.65 763.746 731.786 763.401Q731.921 763.056 732.073 762.717Q732.225 762.379 732.394 762.048Q732.562 761.718 732.747 761.396Q732.931 761.074 733.131 760.761Q733.331 760.449 733.545 760.146Q733.76 759.844 733.99 759.552Q734.219 759.26 734.462 758.98Q734.705 758.7 734.962 758.432Q735.219 758.164 735.488 757.909Q735.757 757.654 736.039 757.412Q736.32 757.171 736.613 756.943Q736.906 756.715 737.21 756.502Q737.513 756.289 737.827 756.091Q738.141 755.893 738.464 755.71Q738.787 755.528 739.118 755.361Q739.45 755.194 739.789 755.044Q740.128 754.894 740.474 754.76Q740.82 754.627 741.173 754.51Q741.525 754.394 741.882 754.294Q742.24 754.195 742.602 754.114Q742.964 754.032 743.329 753.968Z"/>
</svg>
